# xmcd
#
# Track frame offsets:
#	150
#	5000
#	26986
#	53479
#	76276
#	96399
#	120428
#	140444
#	162830
#	184952
#	205990
#	225148
#	248004
#	276613
#	294703
#
# Disc length: 4184 seconds
#
# Revision: 3
# Processed by: cddbd v1.5.2PL0 Copyright (c) Steve Scherf et al.
# Submitted via: EasyCDDAExtractor 2010.6.0.0
#
DISCID=d110560f
DTITLE=Oficina G3 - Depois Da Guerra
DYEAR=2008
DGENRE=Christian Rock
TTITLE0=D.A.G.
TTITLE1=Meus Próprios Meios
TTITLE2=Eu Sou
TTITLE3=Meus Passos
TTITLE4=Continuar
TTITLE5=De Joelhos
TTITLE6=Tua Mão
TTITLE7=Muros
TTITLE8=Depois Da Guerra (D.D.G.)
TTITLE9=A Ele
TTITLE10=Incondicional
TTITLE11=Obediência
TTITLE12=Better
TTITLE13=People Get Ready
TTITLE14=Unconditional
EXTD=
EXTT0=
EXTT1=
EXTT2=
EXTT3=
EXTT4=
EXTT5=
EXTT6=
EXTT7=
EXTT8=
EXTT9=
EXTT10=
EXTT11=
EXTT12=
EXTT13=
EXTT14=
PLAYORDER=
